IKResults
version=1
nRows=17
nColumns=40
inDegrees=yes

Units are S.I. units (second, meters, Newtons, ...)
Angles are in degrees.

endheader
time	pelvis_tilt	pelvis_list	pelvis_rotation	pelvis_tx	pelvis_ty	pelvis_tz	hip_flexion_r	hip_adduction_r	hip_rotation_r	knee_angle_r	knee_angle_r_beta	ankle_angle_r	subtalar_angle_r	mtp_angle_r	hip_flexion_l	hip_adduction_l	hip_rotation_l	knee_angle_l	knee_angle_l_beta	ankle_angle_l	subtalar_angle_l	mtp_angle_l	lumbar_extension	lumbar_bending	lumbar_rotation	arm_flex_r	arm_add_r	arm_rot_r	elbow_flex_r	pro_sup_r	wrist_flex_r	wrist_dev_r	arm_flex_l	arm_add_l	arm_rot_l	elbow_flex_l	pro_sup_l	wrist_flex_l	wrist_dev_l
      0.00000000	     17.05951211	      0.85308049	      1.56521585	     -1.31625835	      0.95489706	     -1.38095203	    -18.98625222	      4.19858540	    -11.83990859	    -15.05088341	     -0.26268747	     10.82681949	     -5.69010287	      0.17552499	      2.60946921	      3.15301178	      6.61448807	    -46.44456467	     -0.81061057	     10.36984135	     17.99268613	     12.60455342	    -23.70841979	     -1.65760799	      1.14912886	      5.00625345	    -11.21304504	     -0.65556462	     37.55326926	     89.95437384	      0.00000000	      0.00000000	     -4.37537440	      6.41230508	      9.79042071	     16.12499669	     89.95437384	      0.00000000	      0.00000000
      0.01000000	     16.65998135	      0.80312514	      1.49690151	     -1.30713548	      0.95340233	     -1.38126454	    -19.12976862	      4.21197247	    -11.79125762	    -15.13194185	     -0.26410221	     11.32204638	     -5.75660573	      0.11473981	      3.74248253	      3.25832191	      6.93813819	    -44.47752352	     -0.77627923	     10.69656445	     17.75464088	     12.44212213	    -23.30560904	     -1.71520346	      1.19834884	      5.46445464	    -11.36779055	     -0.60326351	     38.66225641	     89.95437384	      0.00000000	      0.00000000	     -5.30322865	      6.27745171	      9.49069788	     15.72961675	     89.95437384	      0.00000000	      0.00000000
      0.02000000	     16.92631697	      1.24682575	      0.93231185	     -1.29724768	      0.95300477	     -1.38144875	    -20.21068894	      3.58932247	    -11.05871620	    -14.95943843	     -0.26109145	     11.75952861	     -5.86541283	      0.06624823	      3.57496653	      2.80698643	      7.99685951	    -41.61371162	     -0.72629628	     10.81204817	     17.46988195	     12.01632405	    -23.53540992	     -2.38818164	      1.64432178	      5.63338648	    -11.58679782	     -0.73689691	     40.13925546	     89.95437384	      0.00000000	      0.00000000	     -6.27729793	      6.30935220	      7.96251546	     15.52555474	     89.95437384	      0.00000000	      0.00000000
      0.03000000	     16.36347531	      1.07715631	      1.02742013	     -1.28834665	      0.95101326	     -1.38192410	    -20.11917060	      3.77176853	    -11.07438036	    -15.13787047	     -0.26420568	     12.05560566	     -5.87826689	      0.02132566	      4.90254671	      3.08323676	      8.40246145	    -39.57140398	     -0.69065129	     10.77595911	     16.94286357	     11.80550248	    -22.98477135	     -2.26046756	      1.55005327	      6.11154334	    -11.70291839	     -0.73850548	     41.18731936	     89.95437384	      0.00000000	      0.00000000	     -7.19842169	      6.16747479	      7.72661559	     15.34319227	     89.95437384	      0.00000000	      0.00000000
      0.04000000	     16.59577037	      1.41505699	      0.47438843	     -1.27833598	      0.95039118	     -1.38207047	    -21.25014768	      3.30541610	    -10.11500878	    -14.77668120	     -0.25790174	     12.39759787	     -6.34389607	      0.30538976	      4.56591189	      2.77623989	      9.52571224	    -36.28949058	     -0.63337109	     10.22286397	     16.05378721	      6.00875143	    -23.16585140	     -2.80633422	      2.14474340	      6.19338692	    -11.95371148	     -0.88750133	     42.59409778	     89.95437384	      0.00000000	      0.00000000	     -8.16478520	      6.27101454	      5.72968466	     15.40518587	     89.95437384	      0.00000000	      0.00000000
      0.05000000	     16.23100284	      1.55889587	      0.34584023	     -1.26876818	      0.94863720	     -1.38266019	    -21.45662088	      3.07758643	     -9.91380682	    -14.91474773	     -0.26031145	     13.00131550	     -6.41029311	      0.23905055	      5.20878339	      2.63763006	     10.24081821	    -33.49930246	     -0.58467312	      9.91287894	     14.82395783	      5.63370283	    -22.75920929	     -3.03298670	      2.26157997	      6.47222637	    -12.10050552	     -1.03580246	     43.67763108	     89.95437384	      0.00000000	      0.00000000	     -9.01655551	      6.17139037	      5.35575274	     15.27468372	     89.95437384	      0.00000000	      0.00000000
      0.06000000	     16.08945350	      1.72128083	      0.08310810	     -1.25891512	      0.94716924	     -1.38310544	    -21.95915318	      2.77583384	     -9.67925458	    -14.94837376	     -0.26089834	     13.28448983	     -6.37138174	      0.18428079	      5.42256505	      2.54037350	     11.39333749	    -30.46927441	     -0.53178916	      9.33999442	     12.98202315	      4.90141019	    -22.55692857	     -3.32469920	      2.48893873	      6.72122347	    -12.24445918	     -1.14401999	     44.72497813	     89.95437384	      0.00000000	      0.00000000	     -9.92995669	      6.12429432	      4.68686385	     15.25093401	     89.95437384	      0.00000000	      0.00000000
      0.07000000	     15.91158658	      1.85231759	     -0.13824041	     -1.24916907	      0.94558902	     -1.38361051	    -22.37944210	      2.52056938	     -9.39047834	    -15.07356518	     -0.26308334	     13.71794748	     -6.40140774	      0.09069049	      5.66161786	      2.49770126	     12.67313018	    -27.48311305	     -0.47967081	      8.65986494	     10.38509541	      3.95677058	    -22.35499651	     -3.55777982	      2.69764767	      6.97982030	    -12.38921593	     -1.26434699	     45.73890358	     89.95437384	      0.00000000	      0.00000000	    -10.73961397	      6.05348231	      4.27049610	     15.23678014	     89.95437384	      0.00000000	      0.00000000
      0.08000000	     15.73906056	      1.80157909	     -0.39167004	     -1.23923986	      0.94386406	     -1.38390643	    -22.85880899	      2.52269716	     -8.63411595	    -15.07065062	     -0.26303247	     13.87464153	     -7.05660944	     -0.11097151	      5.91807407	      2.77341084	     14.54300655	    -24.61430402	     -0.42960065	      7.48419962	      7.99462404	     -3.90304618	    -22.12236844	     -3.62962127	      2.98437928	      7.21484297	    -12.55258492	     -1.30037166	     46.67806453	     89.95437384	      0.00000000	      0.00000000	    -11.55351016	      5.99066827	      3.91824425	     15.21629302	     89.95437384	      0.00000000	      0.00000000
      0.09000000	     15.67966390	      1.98978649	     -0.69018364	     -1.22924595	      0.94228041	     -1.38447882	    -23.37218018	      2.16576785	     -8.28809810	    -15.27166129	     -0.26654077	     14.24158260	     -7.07057044	     -0.17428895	      5.95241477	      2.64706122	     16.36079225	    -21.79441502	     -0.38038430	      6.71048719	      4.92623897	     -4.37192114	    -22.02931743	     -3.93576474	      3.21226086	      7.44136805	    -12.72252114	     -1.33422365	     47.57868151	     89.95437384	      0.00000000	      0.00000000	    -12.28099904	      5.88136571	      3.60781958	     15.17270815	     89.95437384	      0.00000000	      0.00000000
      0.10000000	     15.60371018	      2.11259968	     -1.09819583	     -1.21917111	      0.94055510	     -1.38497750	    -23.81689543	      1.82575600	     -7.81283499	    -15.58153557	     -0.27194910	     14.54680211	     -7.31302693	     -0.23001973	      6.11175061	      2.70249166	     18.85500556	    -19.42552707	     -0.33903941	      5.69414903	      1.01316136	     -5.25760382	    -21.90481912	     -4.19128111	      3.58251644	      7.65069369	    -12.86505757	     -1.47255311	     48.40035109	     89.95437384	      0.00000000	      0.00000000	    -12.98157203	      5.80260594	      3.31769253	     15.16196503	     89.95437384	      0.00000000	      0.00000000
      0.11000000	     15.60087504	      2.35214899	     -1.44721894	     -1.20882129	      0.93887408	     -1.38577900	    -24.37003023	      1.32908042	     -7.58927737	    -15.88815184	     -0.27730056	     14.92897435	     -7.16105835	     -0.35483729	      6.21124766	      2.50481218	     21.16643650	    -17.31988457	     -0.30228901	      4.88999685	     -2.22414376	     -6.16576949	    -21.83618978	     -4.53455555	      3.80677301	      7.82002587	    -13.00737119	     -1.54438768	     49.16858016	     89.95437384	      0.00000000	      0.00000000	    -13.65126527	      5.68972872	      3.23435023	     15.12913241	     89.95437384	      0.00000000	      0.00000000
      0.12000000	     15.36078603	      2.56962892	     -1.56739418	     -1.19887267	      0.93690127	     -1.38697982	    -24.55818666	      0.96448057	     -7.32841273	    -16.39175642	     -0.28609012	     15.23294279	     -7.39456562	     -0.40797274	      6.65617667	      2.07823377	     21.95763804	    -15.50095717	     -0.27054274	      4.93546166	     -3.51040591	     -6.34814372	    -21.59369180	     -4.76322322	      3.86018133	      7.99664431	    -13.13516543	     -1.64513293	     49.86607728	     89.95437384	      0.00000000	      0.00000000	    -14.19594522	      5.57860564	      3.14361709	     15.07122475	     89.95437384	      0.00000000	      0.00000000
      0.13000000	     15.72490122	      2.97286951	     -2.13255486	     -1.18803366	      0.93577161	     -1.38783306	    -25.42395001	      0.08333423	     -7.44893924	    -16.89804757	     -0.29492657	     15.56299804	     -6.63453937	     -0.98959966	      6.42283915	      1.75417347	     24.80205041	    -14.21889790	     -0.24816658	      3.90121447	     -6.87270449	     -7.33557999	    -21.86677772	     -5.32528008	      4.19261829	      8.11902143	    -13.24192635	     -1.76087057	     50.48552820	     89.95437384	      0.00000000	      0.00000000	    -14.77271485	      5.50080946	      2.92688813	     15.06613764	     89.95437384	      0.00000000	      0.00000000
      0.14000000	     15.53660336	      2.96289224	     -2.07240214	     -1.17780919	      0.93389529	     -1.38920577	    -25.75803236	     -0.00962150	     -7.37913397	    -17.24016508	     -0.30089764	     15.61652996	     -6.65543624	     -1.01816283	      7.07604093	      1.64155793	     25.22271642	    -13.57192286	     -0.23687474	      4.19688834	     -7.01735276	     -7.32028789	    -21.66209476	     -5.27326947	      4.07119713	      8.34810476	    -13.28393104	     -1.83407516	     50.83136953	     89.95437384	      0.00000000	      0.00000000	    -15.22797637	      5.39195472	      2.90544143	     14.96817973	     89.95437384	      0.00000000	      0.00000000
      0.15000000	     15.89073495	      3.53615717	     -2.93114681	     -1.16677887	      0.93298550	     -1.38998671	    -26.48140843	     -1.20294496	     -6.98885999	    -17.95796099	     -0.31342555	     15.76684630	     -6.45941703	     -1.28895569	      6.42182160	      0.76965545	     26.41070507	    -11.97461453	     -0.20899645	      3.67682771	     -8.26230714	     -7.50218828	    -21.88964487	     -6.08477683	      4.59123554	      8.38844707	    -13.36593846	     -1.94839233	     51.31752708	     89.95437384	      0.00000000	      0.00000000	    -15.70614197	      5.28567310	      2.82886749	     14.99487873	     89.95437384	      0.00000000	      0.00000000
      0.16000000	     15.71601011	      3.50857969	     -2.86611512	     -1.15610468	      0.93133658	     -1.39128478	    -26.78820589	     -1.29690832	     -6.89129617	    -18.44804103	     -0.32197906	     15.56540310	     -6.33300321	     -1.29435725	      7.01257148	      0.75003164	     26.27481530	    -12.01312159	     -0.20966853	      3.65274771	     -8.10569565	     -7.40265604	    -21.65730949	     -6.03382476	      4.51747020	      8.43112697	    -13.38056582	     -2.03364903	     51.50229668	     89.95437384	      0.00000000	      0.00000000	    -16.12665719	      5.23850744	      2.80918437	     15.02195117	     89.95437384	      0.00000000	      0.00000000
